<?xml version="1.0" encoding="utf-8"?>
<!-- Generator: Adobe Illustrator 16.0.4, SVG Export Plug-In . SVG Version: 6.00 Build 0)  -->
<!DOCTYPE svg PUBLIC "-//W3C//DTD SVG 1.1//EN" "http://www.w3.org/Graphics/SVG/1.1/DTD/svg11.dtd">
<svg version="1.1" xmlns="http://www.w3.org/2000/svg" xmlns:xlink="http://www.w3.org/1999/xlink" x="0px" y="0px" width="1367px"
	 height="272px" viewBox="0 0 1367 272" enable-background="new 0 0 1367 272" xml:space="preserve">
<g id="Layer_1">
	<g display="none">
		<g display="inline">
			<path fill="#FFFFFF" d="M503.24,316.48c0-120.08,0-240.16,0-360.24c120.08,0,240.16,0,360.24,0c0,120.08,0,240.16,0,360.24
				C743.4,316.48,623.32,316.48,503.24,316.48z M844.773,74.305c-0.55-0.334-0.887-0.544-1.229-0.746
				c-9.473-5.571-18.953-11.128-28.406-16.733c-0.876-0.519-1.471-0.521-2.33,0.047c-39.425,26.042-78.865,52.059-118.306,78.078
				c-26.426,17.434-52.855,34.865-79.273,52.312c-0.773,0.511-1.354,0.748-2.211,0.079c-4.309-3.364-8.679-6.648-13.002-9.993
				c-6.38-4.935-12.727-9.911-19.11-14.842c-8.698-6.717-17.428-13.393-26.112-20.129c-0.949-0.736-1.555-0.838-2.675-0.161
				c-8.748,5.288-17.563,10.465-26.356,15.678c-0.357,0.212-0.7,0.448-1.13,0.726c0.374,0.243,0.604,0.401,0.842,0.546
				c29.066,17.577,58.133,35.156,87.213,52.712c0.285,0.172,0.841,0.2,1.118,0.036c5.054-2.981,10.081-6.01,15.122-9.014
				c10.664-6.354,21.333-12.698,31.999-19.05c8.334-4.964,16.669-9.927,25-14.899c9.048-5.401,18.084-10.822,27.136-16.217
				c10.288-6.131,20.591-12.234,30.88-18.364c7.817-4.657,15.622-9.336,23.433-14.004c8.29-4.955,16.572-9.924,24.874-14.86
				c7.409-4.407,14.847-8.767,22.261-13.168c8.374-4.972,16.735-9.965,25.102-14.95C841.279,76.393,842.946,75.396,844.773,74.305z"
				/>
			<path fill-rule="evenodd" clip-rule="evenodd" d="M844.773,74.305c-1.827,1.091-3.494,2.088-5.163,3.083
				c-8.366,4.985-16.728,9.979-25.102,14.95c-7.414,4.401-14.852,8.762-22.261,13.168c-8.302,4.937-16.584,9.905-24.874,14.86
				c-7.811,4.668-15.615,9.347-23.433,14.004c-10.289,6.129-20.592,12.233-30.88,18.364c-9.052,5.395-18.088,10.815-27.136,16.217
				c-8.33,4.973-16.665,9.936-25,14.899c-10.666,6.352-21.335,12.695-31.999,19.05c-5.041,3.004-10.068,6.032-15.122,9.014
				c-0.277,0.164-0.833,0.136-1.118-0.036c-29.08-17.556-58.147-35.135-87.213-52.712c-0.238-0.145-0.468-0.303-0.842-0.546
				c0.43-0.277,0.773-0.514,1.13-0.726c8.793-5.213,17.608-10.39,26.356-15.678c1.12-0.677,1.726-0.575,2.675,0.161
				c8.684,6.736,17.414,13.412,26.112,20.129c6.383,4.931,12.73,9.907,19.11,14.842c4.324,3.345,8.694,6.629,13.002,9.993
				c0.857,0.669,1.438,0.432,2.211-0.079c26.418-17.447,52.847-34.878,79.273-52.312c39.44-26.019,78.881-52.035,118.306-78.078
				c0.859-0.568,1.454-0.566,2.33-0.047c9.453,5.604,18.934,11.162,28.406,16.733C843.887,73.76,844.224,73.971,844.773,74.305z"/>
		</g>
	</g>
</g>
<g id="Layer_2">
	<polygon fill="#CC0000" points="524.002,158.666 613.335,212.333 844.668,74.333 813.668,56.333 614.002,188 553.002,141.666 	"/>
</g>
</svg>
